# xmcd
#
# Track frame offsets:
#	150
#	15963
#	29740
#	49117
#	66709
#	80453
#	97054
#	113940
#	131277
#	145364
#	162979
#	176269
#
# Disc length: 2518 seconds
#
# Revision: 1
# Processed by: cddbd v1.5.2PL0 Copyright (c) Steve Scherf et al.
# Submitted via: audiograbber 1.83.01
#
DISCID=a409d40c
DTITLE=Gary Nichols - Gary Nichols
DYEAR=2006
DGENRE=Country
TTITLE0=Love For A Living
TTITLE1=Southern Girls
TTITLE2=Making Love To You
TTITLE3=No Mississippi
TTITLE4=Homegrown
TTITLE5=I Can't Love You Anymore
TTITLE6=Riverbed
TTITLE7=Unbroken Ground
TTITLE8='Til The Real Thing Comes Along
TTITLE9=We're Gonna Make Some Love
TTITLE10=Stay Strong
TTITLE11=Going Fast
EXTD=
EXTT0=
EXTT1=
EXTT2=
EXTT3=
EXTT4=
EXTT5=
EXTT6=
EXTT7=
EXTT8=
EXTT9=
EXTT10=
EXTT11=
PLAYORDER=
